PathFileType	4	(X/Y/Z)	D:\TRACE\v60_Jaco2_6-2-23\BothDRS_Motion2_10-v60.trc
DataRate	CameraRate	NumFrames	NumMarkers	Units	OrigDataRate	OrigDataStartFrame	OrigNumFrames
100.00	100.00	      35	9	mm	100.00	5626	      7500
Frame#	Time	front left toe			Front right toe			aft left toe			aft right toe			Arm			FL body			FR body			AL Body			AR Body			
		X1	Y1	Z1	X2	Y2	Z2	X3	Y3	Z3	X4	Y4	Z4	X5	Y5	Z5	X6	Y6	Z6	X7	Y7	Z7	X8	Y8	Z8	X9	Y9	Z9	

5626	56.250	-107.96709	40.37220	-230.13550	264.70044	125.64242	-244.47913	-30.42888	61.32058	420.14972	341.15259	-12.04336	354.12735	105.25951	1170.72937	-701.56787	-17.66774	602.89148	-353.26895	141.90425	600.80389	-372.74823	93.00968	517.15515	582.72699	252.17485	509.99976	564.71594	
5627	56.260	-108.78509	40.17388	-230.26683	268.36386	116.28239	-241.61020	-26.16467	51.89784	424.17157	340.16681	-11.80979	353.86746	103.54755	1170.64954	-700.95160	-18.41996	602.63043	-352.23804	141.33461	600.64795	-371.81876	93.86636	516.82550	583.47321	252.82372	509.51190	565.30090	
5628	56.270	-109.50090	39.84634	-230.18941	271.23242	107.07237	-239.24045	-21.98660	42.94076	427.87735	339.58337	-11.64021	353.74707	101.61652	1170.76892	-700.30127	-19.07404	602.17328	-351.53693	140.04300	600.18823	-371.04272	93.95216	516.67407	584.01373	251.78380	510.05109	566.90570	
5629	56.280	-110.38562	39.51308	-230.16515	273.07184	97.45827	-237.39639	-20.23853	33.55241	431.15366	338.56232	-11.40439	353.96027	100.41651	1170.66479	-699.86591	-19.90990	601.89960	-350.88065	139.35506	600.18756	-370.74634	95.96333	517.32318	586.39478	252.28494	509.85580	567.04584	
5630	56.290	-111.47433	39.31849	-230.13954	274.15042	88.46868	-236.87196	-18.23678	22.69941	433.03925	337.49356	-11.30024	353.75858	98.63937	1170.52209	-698.93494	-21.07388	601.63300	-350.14993	138.42551	600.10101	-370.42615	94.99249	515.54358	584.60693	252.64784	509.58948	567.16736	
5631	56.300	-112.29467	39.01562	-230.09190	274.20819	79.78506	-238.22754	-18.21099	13.83301	432.23898	336.71606	-11.09271	353.48853	97.46700	1170.63354	-698.47028	-22.26549	601.39008	-349.93808	136.33046	599.97668	-370.44550	95.19557	514.96014	584.64191	253.00015	509.22141	567.08807	
5632	56.310	-112.65937	38.43512	-230.10689	273.03613	71.63320	-240.70717	-18.19872	5.57525	429.72159	335.84418	-11.07905	353.37256	94.90775	1170.85059	-698.20551	-23.58378	601.32385	-349.87021	135.85446	600.17358	-370.77277	95.50370	514.46124	585.24841	253.13115	508.67035	566.65533	
5633	56.320	-114.02109	38.40757	-230.25304	271.53085	64.36522	-244.18457	-18.36873	-2.62884	426.08289	335.31549	-10.42826	353.26465	92.17994	1171.23230	-697.70648	-24.45954	601.12750	-349.73203	135.45647	600.15143	-370.21979	95.40880	514.13940	584.66022	254.88597	508.36804	566.39807	
5634	56.330	-114.93825	37.98759	-230.24570	268.99658	58.29915	-248.39229	-20.11203	-8.89162	421.19241	334.37183	-10.17265	353.13153	89.04022	1171.78271	-697.46674	-25.27702	600.76196	-349.82605	134.07582	600.30212	-370.71277	94.96326	513.16852	584.39404	254.79369	508.16928	566.08221	
5635	56.340	-115.58551	37.73292	-230.54855	266.19540	52.16859	-252.56413	-22.24291	-14.83261	416.44220	332.91138	-10.05763	352.95059	85.93148	1172.35779	-697.29517	-26.85045	600.61536	-350.37048	132.31810	600.32275	-370.96902	94.75745	512.38806	584.22498	252.31512	507.65729	565.35693	
5636	56.350	-116.66116	37.09638	-230.39058	264.56693	46.14319	-256.24368	-24.73525	-15.64988	414.06097	332.00412	-9.52817	352.86029	82.48719	1172.98535	-696.82446	-28.38697	600.93463	-350.88962	131.07158	600.81482	-371.95050	94.29727	511.95398	583.00122	245.88791	505.24866	561.66010	
5637	56.360	-117.75952	37.24323	-230.52338	262.26315	40.98448	-260.04938	-25.19619	-16.88576	416.20081	330.66275	-9.09931	352.33789	79.44080	1173.65479	-697.38159	-30.45564	600.43512	-351.58151	129.77089	600.06427	-372.82104	94.32281	512.90240	582.15082	251.64665	507.79132	563.31824	
5638	56.370	-118.60204	36.54683	-230.51744	262.07635	38.37596	-259.84497	-26.90557	-14.24232	414.76672	329.69470	-8.40706	352.04822	76.03899	1174.23206	-699.14545	-32.44717	599.91370	-352.41266	127.46066	599.59003	-373.95627	93.94493	514.16156	581.79883	251.04655	509.35013	562.16559	
5639	56.380	-119.31239	35.90340	-231.02676	261.56845	37.35511	-261.84195	-25.68022	-13.82987	416.34692	328.54791	-7.70698	351.53751	73.86764	1174.18481	-701.70062	-34.29739	599.55640	-352.82138	124.26958	600.14038	-374.03516	93.43581	515.36847	581.05200	250.35344	510.48624	561.15063	
5640	56.390	-119.44358	38.23962	-233.16235	260.88510	36.56718	-261.01807	-26.20443	-14.14457	415.58286	327.11566	-4.79953	350.48441	70.98100	1173.20764	-704.44324	-36.75473	600.12689	-353.16757	123.06956	601.35303	-375.42877	93.18050	516.87195	580.73169	249.83240	511.54037	559.20703	
5641	56.400	-116.73821	42.61518	-232.80348	257.74130	35.67606	-262.25812	-27.89091	-14.01416	415.06757	323.23169	-1.23579	352.98883	67.50912	1171.40198	-705.86365	-39.08178	601.41864	-353.79715	120.84760	602.18384	-376.02759	92.54173	517.52875	579.31128	249.15363	512.59222	558.03870	
5642	56.410	-112.26878	45.77147	-228.97313	257.89017	36.05019	-262.12268	-29.19127	-13.08198	415.19034	318.14072	4.26237	356.08914	63.90784	1170.40381	-706.80634	-40.91338	601.41425	-354.16681	117.81809	602.68835	-375.93607	91.85530	518.59601	579.06549	248.37190	513.68707	557.39154	
5643	56.420	-112.61391	56.64728	-228.25873	257.07584	35.62243	-262.59708	-29.83111	-12.45517	414.89319	312.51859	15.48112	355.24585	59.36226	1170.77637	-708.27478	-43.39315	601.14294	-354.66074	116.07832	602.68652	-377.18652	91.05092	519.59094	578.51648	247.31880	515.30005	556.63831	
5644	56.430	-114.12890	66.13256	-228.71089	255.73907	35.00013	-262.87488	-30.91389	-11.87665	414.83243	310.28738	28.58989	355.24506	54.87806	1171.45679	-708.97095	-45.26501	600.22931	-355.33340	114.32650	601.89404	-378.08273	89.64817	520.79114	577.93024	245.92326	516.60895	556.09277	
5645	56.440	-118.67997	79.69468	-227.93411	254.77805	34.54305	-262.98410	-32.27097	-11.39034	414.72955	308.64978	41.82023	353.18967	49.99509	1171.85449	-709.43536	-46.57592	599.24066	-355.70731	112.54656	601.18951	-378.55185	88.07008	521.83215	577.36273	244.52589	517.40594	555.85040	
5646	56.450	-123.85630	92.63925	-228.78465	253.25368	34.01839	-263.37097	-33.42036	-11.34560	414.77213	311.51691	57.24195	352.25491	46.13531	1171.16174	-710.30743	-48.39206	598.96332	-356.27780	111.68430	600.81799	-379.18887	86.19249	522.01337	577.02454	242.93307	517.63739	555.36615	
5647	56.460	-129.35184	106.40913	-228.22931	252.58112	33.82788	-263.44980	-34.84959	-11.07028	414.55865	310.68970	70.63251	351.39847	43.03387	1169.92297	-711.13818	-49.99995	598.05811	-356.60269	109.30664	600.51703	-379.33859	84.62288	521.96448	577.07001	240.91696	518.45099	556.09497	
5648	56.470	-134.03294	119.56050	-227.70506	251.37061	33.24755	-263.72458	-35.82690	-10.73087	414.35297	310.82553	83.31765	350.09918	40.30383	1168.39063	-712.04852	-52.59594	597.49243	-356.91199	107.04346	599.82916	-379.76599	82.38178	521.82971	576.85510	238.74078	518.60669	555.71997	
5649	56.480	-137.57347	131.63602	-227.24960	250.13388	32.84925	-263.92700	-36.79672	-10.41213	414.36911	309.91034	95.22655	349.29120	38.21789	1166.82764	-713.20880	-54.54179	596.78925	-357.10455	103.91147	599.60748	-381.08426	80.47437	522.25073	576.34497	236.70699	518.67065	554.31732	
5650	56.490	-141.06836	142.61250	-226.40581	248.94205	32.36502	-264.06723	-38.18205	-9.80145	414.26230	308.49622	106.69962	348.69263	36.98006	1165.46240	-714.21637	-56.94897	595.89691	-357.37320	102.68476	598.47626	-380.49463	78.71188	523.10620	575.86505	234.78639	519.19391	554.22137	
5651	56.500	-144.96321	152.16856	-225.60600	247.61346	32.12790	-264.18265	-39.17819	-9.25812	414.24866	305.75565	117.28770	348.24979	35.64315	1164.47034	-715.40277	-59.52919	595.27374	-357.57822	98.92590	597.37689	-380.75403	76.94253	523.51251	575.87634	232.94655	519.83521	553.99268	
5652	56.510	-150.22372	159.83025	-224.41771	246.28651	31.63643	-264.50424	-40.50307	-8.61531	413.90088	303.27005	126.91212	347.81784	32.90763	1163.63232	-716.11584	-61.71848	594.18054	-357.62704	96.84270	596.85577	-381.60242	74.81651	524.40521	575.72961	230.85301	520.56348	553.69366	
5653	56.520	-155.37077	164.47087	-222.68495	245.09956	31.28899	-264.72256	-42.35366	-7.49202	413.68164	300.53928	132.86771	347.56894	31.34823	1162.18457	-717.03369	-64.18797	593.14166	-357.95682	94.35190	595.29456	-380.34283	72.73712	525.24292	575.54626	228.74857	521.86377	554.21002	
5654	56.530	-160.93208	167.07677	-221.09441	243.81544	30.84376	-264.84537	-43.42379	-6.90380	413.50568	297.71280	134.76483	348.04312	29.14656	1160.46680	-718.77075	-65.91373	592.22260	-358.12729	93.11393	594.56763	-381.25522	70.52472	525.89197	575.78418	226.34079	522.12109	553.42944	
5655	56.540	-166.10767	166.20479	-218.79057	242.49211	30.14502	-265.08145	-45.05533	-6.25205	413.45374	295.45193	133.29503	348.48288	26.96687	1158.92822	-720.17334	-68.26596	591.82666	-358.66742	90.32743	593.52759	-381.13144	67.77254	526.77917	575.29767	224.00739	522.98914	553.90344	
5656	56.550	-171.52972	162.76506	-217.43440	241.51167	29.75668	-265.17053	-46.67202	-5.50949	413.23129	292.03421	129.19748	349.31287	24.52116	1157.32117	-721.70630	-70.15666	591.21021	-358.98618	88.51916	593.21545	-382.52988	65.70133	527.59924	574.96979	221.47148	523.33459	553.02179	
5657	56.560	-176.62227	158.59477	-216.32497	240.06226	29.24410	-265.53659	-47.77395	-4.91084	412.89941	286.86792	123.40198	349.67365	22.33155	1155.71094	-723.14343	-72.23653	590.97003	-359.57764	86.80328	592.43500	-382.50354	62.96151	528.29437	574.86694	218.97975	524.22357	553.43066	
5658	56.570	-180.96062	152.91895	-215.50751	239.10883	28.95468	-265.82214	-49.39543	-4.17738	412.63647	283.01312	117.59148	350.29889	20.64783	1154.48352	-724.46698	-74.83920	590.48456	-360.32587	84.22794	591.94269	-383.93024	60.31549	529.08331	573.95007	216.41780	524.38055	552.32758	
5659	56.580	-185.43454	146.62021	-215.53783	237.74977	28.39502	-266.04852	-50.38190	-3.83430	412.44266	277.56973	110.74042	350.79083	19.34100	1153.40125	-725.95862	-77.21749	590.05890	-361.10474	81.36922	590.89471	-383.36572	57.75834	529.52948	573.44653	212.77811	523.91650	550.91333	
5660	56.590	-190.06009	139.62384	-215.80231	236.22995	27.83826	-266.20029	-51.72003	-3.02583	412.34830	272.07880	102.62778	350.59741	18.46964	1152.60107	-727.31708	-79.29829	589.61676	-361.76117	79.40131	590.24866	-385.10983	54.99067	530.77136	572.64648	210.96825	525.54083	551.59161	
